<?xml version="1.0"?>
<svg xmlns="http://www.w3.org/2000/svg" viewBox="0 0 64 64" width="512" height="512"><g id="Responsive-4" data-name="Responsive"><path d="M29,4H21a1,1,0,0,0,0,2h8a1,1,0,0,0,0-2Z"/><path d="M33,4H32a1,1,0,0,0,0,2h1a1,1,0,0,0,0-2Z"/><path d="M28,58a3,3,0,1,0-3,3A3,3,0,0,0,28,58Zm-3,1a1,1,0,1,1,1-1A1,1,0,0,1,25,59Z"/><path d="M56,24H45V4a3,3,0,0,0-3-3H8A3,3,0,0,0,5,4V60a3,3,0,0,0,3,3H56a3,3,0,0,0,3-3V27A3,3,0,0,0,56,24Zm-4.281,2-.5,2H42.781l-.5-2ZM38,24a3,3,0,0,0-3,3V53H7V9H43V24ZM7,4A1,1,0,0,1,8,3H42a1,1,0,0,1,1,1V7H7ZM8,61a1,1,0,0,1-1-1V55H35v5a2.966,2.966,0,0,0,.184,1H8Zm49-1a1,1,0,0,1-1,1H38a1,1,0,0,1-1-1V27a1,1,0,0,1,1-1h2.219l.811,3.243A1,1,0,0,0,42,30H52a1,1,0,0,0,.97-.757L53.781,26H56a1,1,0,0,1,1,1Z"/></g></svg>
