<svg id="Capa_1" enable-background="new 0 0 512 512" height="512" viewBox="0 0 512 512" width="512" xmlns="http://www.w3.org/2000/svg"><g><circle cx="256" cy="325.257" r="7.5"/><circle cx="126.159" cy="100.052" r="7.5"/><circle cx="150.529" cy="100.052" r="7.5"/><circle cx="175.844" cy="100.052" r="7.5"/><path d="m478.45 38.391h-343.425c-4.142 0-7.5 3.358-7.5 7.5s3.358 7.5 7.5 7.5h343.425c10.228 0 18.55 8.321 18.55 18.55v206.514h-74.738v-202.916c0-4.142-3.358-7.5-7.5-7.5h-317.524c-4.142 0-7.5 3.358-7.5 7.5v202.916h-74.738v-206.514c0-10.229 8.321-18.55 18.55-18.55h71.475c4.142 0 7.5-3.358 7.5-7.5s-3.358-7.5-7.5-7.5h-71.475c-18.5 0-33.55 15.05-33.55 33.55v266.569c0 18.499 15.05 33.55 33.55 33.55h158.842v53.453h-12.625c-17.674 0-32.053 14.379-32.053 32.054v8.542c0 4.142 3.358 7.5 7.5 7.5h201.572c4.142 0 7.5-3.358 7.5-7.5v-8.542c0-17.674-14.379-32.054-32.053-32.054h-12.625v-53.453h14.956c4.142 0 7.5-3.358 7.5-7.5s-3.358-7.5-7.5-7.5h-22.456-112.216-166.342c-10.229 0-18.55-8.321-18.55-18.55v-45.056h82.238 317.524 82.238v45.056c0 10.228-8.321 18.55-18.55 18.55h-113.886c-4.142 0-7.5 3.358-7.5 7.5s3.358 7.5 7.5 7.5h113.886c18.499 0 33.55-15.05 33.55-33.55v-266.569c0-18.5-15.05-33.55-33.55-33.55zm-129.164 419.175v1.042h-186.572v-1.042c0-9.403 7.65-17.054 17.053-17.054h20.125 112.216 20.125c9.403.001 17.053 7.651 17.053 17.054zm-44.678-85.506v53.453h-97.216v-53.453zm102.654-174.682h-117.185v-35.23h117.185zm0-80.312h-199.052v-34.027h199.052zm-302.524-34.027h88.473v34.028h-88.473zm0 120.114h117.185v73.668h-117.185zm117.185-15h-117.185v-26.004h117.185zm15 90.302v-82.802-41.004c0-4.142-3.358-7.5-7.5-7.5h-124.685v-15.082h302.524v15.082h-124.685c-4.142 0-7.5 3.358-7.5 7.5v50.23c0 4.142 3.358 7.5 7.5 7.5h124.685v13.076h-123.834c-4.142 0-7.5 3.358-7.5 7.5s3.358 7.5 7.5 7.5h123.834v9.5h-123.834c-4.142 0-7.5 3.358-7.5 7.5s3.358 7.5 7.5 7.5h123.834v13.5z"/><path d="m189.704 220.753h-56.045c-4.142 0-7.5 3.358-7.5 7.5s3.358 7.5 7.5 7.5h56.045c4.142 0 7.5-3.358 7.5-7.5s-3.358-7.5-7.5-7.5z"/><path d="m189.704 246.958h-56.045c-4.142 0-7.5 3.358-7.5 7.5s3.358 7.5 7.5 7.5h56.045c4.142 0 7.5-3.358 7.5-7.5s-3.358-7.5-7.5-7.5z"/></g></svg>